{"title":"Lost S01E19 - AVM","uid":5044063,"size":142304376,"categoryP":"video","categoryS":"tv_shows","magnet":"?xt=urn:btih:854f24c8f87a7b48a82778b8394333b72d8990b4&amp;dn=Lost+S01E19+-+AVM&amp;tr=udp%3A%2F%2Ftracker.openbittorrent.com%3A80&amp;tr=udp%3A%2F%2Fopen.demonii.com%3A1337&amp;tr=udp%3A%2F%2Ftracker.coppersurfer.tk%3A6969&amp;tr=udp%3A%2F%2Fexodus.desync.com%3A6969","seeders":1,"leechers":1,"uploader":"SysProfile","files":1,"time":1249535548,"description":"AVIDMobile - http://www.avidmobile.com.ar (Mobile media)\n\nVideo\nID                               : 1\nFormat                           : MPEG-4 Visual\nFormat profile                   : Simple@L1\nFormat settings, BVOP            : No\nFormat settings, QPel            : No\nFormat settings, GMC             : No warppoints\nFormat settings, Matrix          : Default (H.263)\nCodec ID                         : 20\nDuration                         : 42mn 41s\nBit rate mode                    : Variable\nBit rate                         : 374 Kbps\nMaximum bit rate                 : 1 920 Kbps\nWidth                            : 320 pixels\nHeight                           : 240 pixels\nDisplay aspect ratio             : 4/3\nFrame rate mode                  : Variable\nFrame rate                       : 23.976 fps\nMinimum frame rate               : 23.974 fps\nMaximum frame rate               : 23.981 fps\nResolution                       : 24 bits\nColorimetry                      : 4:2:0\nScan type                        : Progressive\nBits/(Pixel*Frame)               : 0.203\nStream size                      : 114 MiB (84%)\n\nAudio\nID                               : 2\nFormat                           : AAC\nFormat/Info                      : Advanced Audio Codec\nFormat version                   : Version 4\nFormat profile                   : LC\nFormat settings, SBR             : No\nCodec ID                         : 40\nDuration                         : 42mn 41s\nBit rate mode                    : Variable\nBit rate                         : 68.0 Kbps\nMaximum bit rate                 : 129 Kbps\nChannel(s)                       : 2 channels\nChannel positions                : L R\nSampling rate                    : 22.05 KHz\nResolution                       : 16 bits\nStream size                      : 20.8 MiB (15%)\n","torrent":{"xt":"urn:btih:854f24c8f87a7b48a82778b8394333b72d8990b4","amp;dn":"Lost+S01E19+-+AVM","amp;tr":["udp%3A%2F%2Ftracker.openbittorrent.com%3A80","udp%3A%2F%2Fopen.demonii.com%3A1337","udp%3A%2F%2Ftracker.coppersurfer.tk%3A6969","udp%3A%2F%2Fexodus.desync.com%3A6969"],"infoHash":"854f24c8f87a7b48a82778b8394333b72d8990b4","infoHashBuffer":{"type":"Buffer","data":[133,79,36,200,248,122,123,72,168,39,120,184,57,67,51,183,45,137,144,180]},"announce":[],"urlList":[]}}